<svg xmlns="http://www.w3.org/2000/svg" viewBox="0 0 32 32" width="32" height="32">
  <defs>
    <linearGradient id="blueGrad" x1="0%" y1="0%" x2="100%" y2="100%">
      <stop offset="0%" style="stop-color:#00C8FF;stop-opacity:1" />
      <stop offset="100%" style="stop-color:#009DFF;stop-opacity:1" />
    </linearGradient>
    <linearGradient id="greenGrad" x1="0%" y1="0%" x2="100%" y2="100%">
      <stop offset="0%" style="stop-color:#A7FF00;stop-opacity:1" />
      <stop offset="100%" style="stop-color:#7CFF00;stop-opacity:1" />
    </linearGradient>
    <linearGradient id="redGrad" x1="0%" y1="0%" x2="100%" y2="100%">
      <stop offset="0%" style="stop-color:#FF3366;stop-opacity:1" />
      <stop offset="100%" style="stop-color:#FF0044;stop-opacity:1" />
    </linearGradient>
  </defs>
  
  <!-- Background -->
  <rect width="32" height="32" rx="6" fill="#050A12"/>
  
  <!-- C letter (blue) -->
  <path d="M10 8 C6 8, 4 12, 4 16 C4 20, 6 24, 10 24 L10 21 C7 21, 6 19, 6 16 C6 13, 7 11, 10 11 Z" 
        fill="none" stroke="url(#blueGrad)" stroke-width="1.5"/>
  
  <!-- Lightning bolt (red) -->
  <path d="M14 6 L10 16 L13 16 L11 24 L18 14 L15 14 Z" 
        fill="url(#redGrad)"/>
  
  <!-- P letter (green) -->
  <path d="M19 8 L25 8 C28 8, 29 10, 29 13 C29 16, 28 18, 25 18 L22 18 L22 24 L19 24 Z M22 11 L22 15 L25 15 C27 15, 27 11, 25 11 Z" 
        fill="none" stroke="url(#greenGrad)" stroke-width="1.5"/>
</svg>
